<?xml version="1.0" encoding="UTF-8" standalone="no"?>
<!-- Created with Inkscape (http://www.inkscape.org/) -->

<svg
   width="86.042809mm"
   height="86.042809mm"
   viewBox="0 0 86.042809 86.042809"
   version="1.1"
   id="svg1"
   xml:space="preserve"
   xmlns:inkscape="http://www.inkscape.org/namespaces/inkscape"
   xmlns:sodipodi="http://sodipodi.sourceforge.net/DTD/sodipodi-0.dtd"
   xmlns="http://www.w3.org/2000/svg"
   xmlns:svg="http://www.w3.org/2000/svg"><sodipodi:namedview
     id="namedview1"
     pagecolor="#505050"
     bordercolor="#eeeeee"
     borderopacity="1"
     inkscape:showpageshadow="0"
     inkscape:pageopacity="0"
     inkscape:pagecheckerboard="0"
     inkscape:deskcolor="#d1d1d1"
     inkscape:document-units="mm"
     inkscape:zoom="4.0159652"
     inkscape:cx="473.36068"
     inkscape:cy="511.08511"
     inkscape:window-width="2560"
     inkscape:window-height="1377"
     inkscape:window-x="-8"
     inkscape:window-y="-8"
     inkscape:window-maximized="1"
     inkscape:current-layer="g3" /><defs
     id="defs1"><rect
       x="329.61041"
       y="477.51251"
       width="188.75125"
       height="149.31068"
       id="rect94" /><rect
       x="329.61041"
       y="477.51251"
       width="188.75125"
       height="149.31068"
       id="rect96" /></defs><g
     inkscape:label="Layer 1"
     inkscape:groupmode="layer"
     id="layer1"
     transform="translate(-65.088533,-102.23304)"><g
       id="g3"
       transform="matrix(0.85962632,0,0,0.85962632,63.290278,100.97301)"
       style="fill:#444b96;fill-opacity:1;stroke:#090a14;stroke-width:1.00043;stroke-linecap:round;stroke-dasharray:none;stroke-opacity:1">
	
	
	
<path
   id="path91"
   style="fill:#57886c;fill-opacity:1;stroke:none;stroke-width:4.025;stroke-linejoin:round;stroke-dasharray:none;paint-order:markers fill stroke"
   d="M 52.13884,1.4657838 A 50.046768,50.046768 0 0 0 2.0919038,51.51272 50.046768,50.046768 0 0 0 52.13884,101.55905 50.046768,50.046768 0 0 0 102.18517,51.51272 50.046768,50.046768 0 0 0 52.13884,1.4657838 Z" /><path
   id="path87"
   style="fill:#334747;fill-opacity:1;stroke:none;stroke-width:3.6923;stroke-linejoin:round;stroke-dasharray:none;paint-order:markers fill stroke"
   d="m 86.215653,48.859779 c 0,6.46183 14.352557,34.437537 -5.425051,33.87634 C 64.418742,82.271561 74.884381,68.109721 69.499221,67.730338 53.074962,66.573252 68.784765,83.062147 52.156665,82.918768 35.847174,82.778134 47.901909,66.372106 33.926336,67.27188 28.025942,67.651759 39.18434,82.616368 22.013495,81.457469 4.4164456,80.269803 18.097676,54.64421 18.097676,48.859779 c 0,-11.506647 3.757232,-27.440412 14.443091,-27.846429 16.022742,-0.608795 11.398173,17.484043 18.701785,17.484043 6.743617,0 5.786898,-19.345965 19.233176,-18.355481 11.203025,0.825242 15.739925,16.651224 15.739925,28.717867 z"
   sodipodi:nodetypes="sssssssssss" /><path
   id="path92"
   style="fill:#57886c;fill-opacity:1;stroke:none;stroke-width:4.025;stroke-linejoin:round;stroke-dasharray:none;paint-order:markers fill stroke"
   d="M 52.13884,1.4657838 A 50.046768,50.046768 0 0 0 2.0919038,51.51272 50.046768,50.046768 0 0 0 52.13884,101.55905 50.046768,50.046768 0 0 0 102.18517,51.51272 50.046768,50.046768 0 0 0 52.13884,1.4657838 Z" /><text
   xml:space="preserve"
   transform="matrix(1.404157,0,0,1.404157,-448.98428,-652.58603)"
   id="text94"
   style="font-style:normal;font-variant:normal;font-weight:normal;font-stretch:normal;font-size:48px;line-height:1;font-family:'Lucida Sans Unicode';-inkscape-font-specification:'Lucida Sans Unicode';white-space:pre;shape-inside:url(#rect94);fill:#ffffff;fill-opacity:1;stroke:none;stroke-width:3.97664;stroke-linecap:round;stroke-linejoin:round;stroke-dasharray:none;stroke-dashoffset:0;stroke-opacity:1;paint-order:markers fill stroke"><tspan
     x="329.61133"
     y="515.57005"
     id="tspan2"><tspan
       style="font-family:Monospace;-inkscape-font-specification:Monospace;stroke:#ffffff"
       id="tspan1">MC</tspan></tspan></text><text
   xml:space="preserve"
   transform="matrix(0.27196455,0,0,0.27196455,-61.129918,-53.15951)"
   id="text96"
   style="font-style:normal;font-variant:normal;font-weight:normal;font-stretch:normal;font-size:48px;line-height:1;font-family:'Lucida Sans Unicode';-inkscape-font-specification:'Lucida Sans Unicode';white-space:pre;shape-inside:url(#rect96);fill:#ffffff;fill-opacity:1;stroke:none;stroke-width:3.97664;stroke-linecap:round;stroke-linejoin:round;stroke-dasharray:none;stroke-dashoffset:0;stroke-opacity:1;paint-order:markers fill stroke"
   inkscape:export-filename="logo.svg"
   inkscape:export-xdpi="96"
   inkscape:export-ydpi="96"><tspan
     x="329.61133"
     y="515.57005"
     id="tspan4"><tspan
       style="font-family:Monospace;-inkscape-font-specification:Monospace;stroke:#ffffff"
       id="tspan3">Script</tspan></tspan></text></g></g></svg>
